<svg width="14" height="14" viewBox="0 0 14 14" fill="none" xmlns="http://www.w3.org/2000/svg">
<g clip-path="url(#clip0_423_495)">
<path d="M0.874634 2.18668C0.874634 1.83858 1.01291 1.50474 1.25906 1.2586C1.5052 1.01246 1.83904 0.874176 2.18713 0.874176H4.81213C5.16023 0.874176 5.49407 1.01246 5.74021 1.2586C5.98635 1.50474 6.12463 1.83858 6.12463 2.18668V4.81168C6.12463 5.15977 5.98635 5.49361 5.74021 5.73975C5.49407 5.9859 5.16023 6.12418 4.81213 6.12418H2.18713C1.83904 6.12418 1.5052 5.9859 1.25906 5.73975C1.01291 5.49361 0.874634 5.15977 0.874634 4.81168V2.18668ZM2.18713 1.74918C2.0711 1.74918 1.95982 1.79527 1.87777 1.87732C1.79573 1.95936 1.74963 2.07064 1.74963 2.18668V4.81168C1.74963 4.92771 1.79573 5.03899 1.87777 5.12104C1.95982 5.20308 2.0711 5.24918 2.18713 5.24918H4.81213C4.92817 5.24918 5.03945 5.20308 5.12149 5.12104C5.20354 5.03899 5.24963 4.92771 5.24963 4.81168V2.18668C5.24963 2.07064 5.20354 1.95936 5.12149 1.87732C5.03945 1.79527 4.92817 1.74918 4.81213 1.74918H2.18713ZM7.87463 2.18668C7.87463 1.83858 8.01291 1.50474 8.25906 1.2586C8.5052 1.01246 8.83904 0.874176 9.18713 0.874176H11.8121C12.1602 0.874176 12.4941 1.01246 12.7402 1.2586C12.9864 1.50474 13.1246 1.83858 13.1246 2.18668V4.81168C13.1246 5.15977 12.9864 5.49361 12.7402 5.73975C12.4941 5.9859 12.1602 6.12418 11.8121 6.12418H9.18713C8.83904 6.12418 8.5052 5.9859 8.25906 5.73975C8.01291 5.49361 7.87463 5.15977 7.87463 4.81168V2.18668ZM9.18713 1.74918C9.0711 1.74918 8.95982 1.79527 8.87777 1.87732C8.79573 1.95936 8.74963 2.07064 8.74963 2.18668V4.81168C8.74963 4.92771 8.79573 5.03899 8.87777 5.12104C8.95982 5.20308 9.0711 5.24918 9.18713 5.24918H11.8121C11.9282 5.24918 12.0394 5.20308 12.1215 5.12104C12.2035 5.03899 12.2496 4.92771 12.2496 4.81168V2.18668C12.2496 2.07064 12.2035 1.95936 12.1215 1.87732C12.0394 1.79527 11.9282 1.74918 11.8121 1.74918H9.18713ZM0.874634 9.18668C0.874634 8.83858 1.01291 8.50474 1.25906 8.2586C1.5052 8.01246 1.83904 7.87418 2.18713 7.87418H4.81213C5.16023 7.87418 5.49407 8.01246 5.74021 8.2586C5.98635 8.50474 6.12463 8.83858 6.12463 9.18668V11.8117C6.12463 12.1598 5.98635 12.4936 5.74021 12.7398C5.49407 12.9859 5.16023 13.1242 4.81213 13.1242H2.18713C1.83904 13.1242 1.5052 12.9859 1.25906 12.7398C1.01291 12.4936 0.874634 12.1598 0.874634 11.8117V9.18668ZM2.18713 8.74918C2.0711 8.74918 1.95982 8.79527 1.87777 8.87732C1.79573 8.95936 1.74963 9.07064 1.74963 9.18668V11.8117C1.74963 11.9277 1.79573 12.039 1.87777 12.121C1.95982 12.2031 2.0711 12.2492 2.18713 12.2492H4.81213C4.92817 12.2492 5.03945 12.2031 5.12149 12.121C5.20354 12.039 5.24963 11.9277 5.24963 11.8117V9.18668C5.24963 9.07064 5.20354 8.95936 5.12149 8.87732C5.03945 8.79527 4.92817 8.74918 4.81213 8.74918H2.18713ZM7.87463 9.18668C7.87463 8.83858 8.01291 8.50474 8.25906 8.2586C8.5052 8.01246 8.83904 7.87418 9.18713 7.87418H11.8121C12.1602 7.87418 12.4941 8.01246 12.7402 8.2586C12.9864 8.50474 13.1246 8.83858 13.1246 9.18668V11.8117C13.1246 12.1598 12.9864 12.4936 12.7402 12.7398C12.4941 12.9859 12.1602 13.1242 11.8121 13.1242H9.18713C8.83904 13.1242 8.5052 12.9859 8.25906 12.7398C8.01291 12.4936 7.87463 12.1598 7.87463 11.8117V9.18668ZM9.18713 8.74918C9.0711 8.74918 8.95982 8.79527 8.87777 8.87732C8.79573 8.95936 8.74963 9.07064 8.74963 9.18668V11.8117C8.74963 11.9277 8.79573 12.039 8.87777 12.121C8.95982 12.2031 9.0711 12.2492 9.18713 12.2492H11.8121C11.9282 12.2492 12.0394 12.2031 12.1215 12.121C12.2035 12.039 12.2496 11.9277 12.2496 11.8117V9.18668C12.2496 9.07064 12.2035 8.95936 12.1215 8.87732C12.0394 8.79527 11.9282 8.74918 11.8121 8.74918H9.18713Z" fill="white"/>
</g>
<defs>
<clipPath id="clip0_423_495">
<rect width="14" height="14" fill="white"/>
</clipPath>
</defs>
</svg>
