<svg width="22" height="19" viewBox="0 0 22 19" fill="none" xmlns="http://www.w3.org/2000/svg">
<mask id="path-1-inside-1_25_1311" fill="white">
<path d="M19.0305 16.7405C19.0305 16.9792 18.9228 17.1992 18.737 17.3484L17.091 18.6537C17.039 18.6947 16.9795 18.7134 16.9201 18.7134C16.8383 18.7134 16.7566 18.6761 16.7009 18.6089C16.6042 18.4896 16.6265 18.3106 16.7454 18.2174L18.2503 17.0202H2.96061V18.6201C2.96061 18.773 2.83428 18.8998 2.68194 18.8998C2.5296 18.8998 2.40327 18.773 2.40327 18.6201V17.0202H0.65323C0.500891 17.0202 0.374561 16.8934 0.374561 16.7405C0.374561 16.5876 0.500891 16.4608 0.65323 16.4608H2.40327V0.958007L1.21428 2.46466C1.11768 2.58772 0.943046 2.60637 0.824147 2.50941C0.705249 2.41245 0.682955 2.23717 0.77956 2.11783L2.08002 0.465735C2.22121 0.286727 2.43671 0.197223 2.65593 0.189765C2.66336 0.189765 2.67079 0.186035 2.68194 0.186035C2.68937 0.186035 2.6968 0.186035 2.70052 0.189765C2.92345 0.193494 3.14267 0.286727 3.28758 0.465735L4.58804 2.11783C4.68464 2.23717 4.66235 2.41618 4.54345 2.50941C4.49143 2.55043 4.43198 2.56908 4.37253 2.56908C4.29079 2.56908 4.20905 2.53178 4.15331 2.46466L2.96061 0.954277V16.4571H4.6512V12.9142C4.6512 12.6569 4.85928 12.4481 5.11565 12.4481H6.50157C6.75794 12.4481 6.96601 12.6569 6.96601 12.9142V16.4571H7.52335V10.9414C7.52335 10.6841 7.73142 10.4753 7.9878 10.4753H9.37371C9.63009 10.4753 9.83816 10.6841 9.83816 10.9414V16.4571H10.3955V9.57276C10.3955 9.31544 10.6036 9.1066 10.8599 9.1066H12.2459C12.4985 9.1066 12.7029 9.31171 12.7103 9.5653V16.4571H18.2503L16.7492 15.2637C16.6265 15.1668 16.608 14.9915 16.7046 14.8721C16.8012 14.7528 16.9758 14.7304 17.0947 14.8274L18.7407 16.1327C18.9265 16.2818 19.0342 16.5019 19.0342 16.7368L19.0305 16.7405ZM15.5825 16.4571V7.78268C15.1923 7.6074 14.8356 7.365 14.5235 7.05173C14.3377 6.86527 14.178 6.66015 14.0405 6.44385H13.7061C13.4646 6.44385 13.2677 6.64151 13.2677 6.88391V9.55412C13.2677 9.55412 13.2677 9.5653 13.2677 9.57276V16.4534H15.5825V16.4571ZM21.6017 8.23766C21.468 8.10714 21.3379 8.00644 21.219 7.93559C20.6951 7.62605 20.2752 7.32025 19.926 6.99952L19.8405 6.92494C19.8071 6.8951 19.7699 6.86527 19.7365 6.83543C19.6733 6.91002 19.6102 6.98088 19.5396 7.05173C19.4132 7.17853 19.2758 7.29414 19.1308 7.39856C19.1791 7.4545 19.2237 7.50671 19.272 7.56265L19.3166 7.61113C19.6362 7.96542 19.9371 8.39056 20.2418 8.90521C20.3273 9.0432 20.4313 9.18118 20.5465 9.29679C20.9589 9.71075 21.2822 9.72567 21.6574 9.35273C22.029 8.9798 22.0141 8.65535 21.598 8.23766H21.6017ZM4.77382 8.8269C4.77382 8.25631 5.23827 7.79014 5.80675 7.79014C6.08542 7.79014 6.33808 7.90202 6.52386 8.08476L7.95436 7.38364C7.92835 7.29041 7.90606 7.19345 7.90606 7.08903C7.90606 6.51844 8.37051 6.05227 8.93899 6.05227C9.07647 6.05227 9.21023 6.08211 9.32913 6.13059L10.8116 4.45985C10.6259 4.27338 10.5144 4.01606 10.5144 3.73263C10.5144 3.16204 10.9788 2.69588 11.5473 2.69588C11.9115 2.69588 12.2273 2.88607 12.4131 3.1695H14.3637C14.5012 2.89726 14.6833 2.63994 14.9137 2.40872C15.4784 1.84186 16.229 1.52859 17.0278 1.52859C17.8267 1.52859 18.5772 1.84186 19.142 2.40872C19.7068 2.97558 20.0189 3.7289 20.0189 4.53071C20.0189 5.33251 19.7068 6.08584 19.142 6.6527C18.5772 7.21955 17.8267 7.53282 17.0278 7.53282C16.229 7.53282 15.4784 7.21955 14.9137 6.6527C14.126 5.86208 13.8733 4.73209 14.152 3.72517H12.584C12.584 4.29576 12.1195 4.76193 11.551 4.76193C11.4693 4.76193 11.3913 4.75074 11.317 4.73209L9.77128 6.46996C9.89761 6.64151 9.97564 6.85035 9.97564 7.08157C9.97564 7.65216 9.51119 8.11832 8.94271 8.11832C8.6789 8.11832 8.43739 8.0139 8.25532 7.84981L6.80624 8.56211C6.82854 8.64416 6.8434 8.72993 6.8434 8.81944C6.8434 9.39003 6.37895 9.85619 5.81047 9.85619C5.24198 9.85619 4.77753 9.39003 4.77753 8.81944L4.77382 8.8269ZM15.5899 5.98142C15.9875 6.38045 16.5114 6.58184 17.0315 6.58184C17.5517 6.58184 18.0756 6.38418 18.4732 5.98515C18.8596 5.59729 19.0714 5.08265 19.0714 4.53817C19.0714 3.98995 18.8596 3.47531 18.4732 3.09118C17.6781 2.29311 16.385 2.29311 15.5862 3.09118C14.791 3.88926 14.791 5.18707 15.5862 5.98887L15.5899 5.98142Z"/>
</mask>
<path d="M19.0305 16.7405C19.0305 16.9792 18.9228 17.1992 18.737 17.3484L17.091 18.6537C17.039 18.6947 16.9795 18.7134 16.9201 18.7134C16.8383 18.7134 16.7566 18.6761 16.7009 18.6089C16.6042 18.4896 16.6265 18.3106 16.7454 18.2174L18.2503 17.0202H2.96061V18.6201C2.96061 18.773 2.83428 18.8998 2.68194 18.8998C2.5296 18.8998 2.40327 18.773 2.40327 18.6201V17.0202H0.65323C0.500891 17.0202 0.374561 16.8934 0.374561 16.7405C0.374561 16.5876 0.500891 16.4608 0.65323 16.4608H2.40327V0.958007L1.21428 2.46466C1.11768 2.58772 0.943046 2.60637 0.824147 2.50941C0.705249 2.41245 0.682955 2.23717 0.77956 2.11783L2.08002 0.465735C2.22121 0.286727 2.43671 0.197223 2.65593 0.189765C2.66336 0.189765 2.67079 0.186035 2.68194 0.186035C2.68937 0.186035 2.6968 0.186035 2.70052 0.189765C2.92345 0.193494 3.14267 0.286727 3.28758 0.465735L4.58804 2.11783C4.68464 2.23717 4.66235 2.41618 4.54345 2.50941C4.49143 2.55043 4.43198 2.56908 4.37253 2.56908C4.29079 2.56908 4.20905 2.53178 4.15331 2.46466L2.96061 0.954277V16.4571H4.6512V12.9142C4.6512 12.6569 4.85928 12.4481 5.11565 12.4481H6.50157C6.75794 12.4481 6.96601 12.6569 6.96601 12.9142V16.4571H7.52335V10.9414C7.52335 10.6841 7.73142 10.4753 7.9878 10.4753H9.37371C9.63009 10.4753 9.83816 10.6841 9.83816 10.9414V16.4571H10.3955V9.57276C10.3955 9.31544 10.6036 9.1066 10.8599 9.1066H12.2459C12.4985 9.1066 12.7029 9.31171 12.7103 9.5653V16.4571H18.2503L16.7492 15.2637C16.6265 15.1668 16.608 14.9915 16.7046 14.8721C16.8012 14.7528 16.9758 14.7304 17.0947 14.8274L18.7407 16.1327C18.9265 16.2818 19.0342 16.5019 19.0342 16.7368L19.0305 16.7405ZM15.5825 16.4571V7.78268C15.1923 7.6074 14.8356 7.365 14.5235 7.05173C14.3377 6.86527 14.178 6.66015 14.0405 6.44385H13.7061C13.4646 6.44385 13.2677 6.64151 13.2677 6.88391V9.55412C13.2677 9.55412 13.2677 9.5653 13.2677 9.57276V16.4534H15.5825V16.4571ZM21.6017 8.23766C21.468 8.10714 21.3379 8.00644 21.219 7.93559C20.6951 7.62605 20.2752 7.32025 19.926 6.99952L19.8405 6.92494C19.8071 6.8951 19.7699 6.86527 19.7365 6.83543C19.6733 6.91002 19.6102 6.98088 19.5396 7.05173C19.4132 7.17853 19.2758 7.29414 19.1308 7.39856C19.1791 7.4545 19.2237 7.50671 19.272 7.56265L19.3166 7.61113C19.6362 7.96542 19.9371 8.39056 20.2418 8.90521C20.3273 9.0432 20.4313 9.18118 20.5465 9.29679C20.9589 9.71075 21.2822 9.72567 21.6574 9.35273C22.029 8.9798 22.0141 8.65535 21.598 8.23766H21.6017ZM4.77382 8.8269C4.77382 8.25631 5.23827 7.79014 5.80675 7.79014C6.08542 7.79014 6.33808 7.90202 6.52386 8.08476L7.95436 7.38364C7.92835 7.29041 7.90606 7.19345 7.90606 7.08903C7.90606 6.51844 8.37051 6.05227 8.93899 6.05227C9.07647 6.05227 9.21023 6.08211 9.32913 6.13059L10.8116 4.45985C10.6259 4.27338 10.5144 4.01606 10.5144 3.73263C10.5144 3.16204 10.9788 2.69588 11.5473 2.69588C11.9115 2.69588 12.2273 2.88607 12.4131 3.1695H14.3637C14.5012 2.89726 14.6833 2.63994 14.9137 2.40872C15.4784 1.84186 16.229 1.52859 17.0278 1.52859C17.8267 1.52859 18.5772 1.84186 19.142 2.40872C19.7068 2.97558 20.0189 3.7289 20.0189 4.53071C20.0189 5.33251 19.7068 6.08584 19.142 6.6527C18.5772 7.21955 17.8267 7.53282 17.0278 7.53282C16.229 7.53282 15.4784 7.21955 14.9137 6.6527C14.126 5.86208 13.8733 4.73209 14.152 3.72517H12.584C12.584 4.29576 12.1195 4.76193 11.551 4.76193C11.4693 4.76193 11.3913 4.75074 11.317 4.73209L9.77128 6.46996C9.89761 6.64151 9.97564 6.85035 9.97564 7.08157C9.97564 7.65216 9.51119 8.11832 8.94271 8.11832C8.6789 8.11832 8.43739 8.0139 8.25532 7.84981L6.80624 8.56211C6.82854 8.64416 6.8434 8.72993 6.8434 8.81944C6.8434 9.39003 6.37895 9.85619 5.81047 9.85619C5.24198 9.85619 4.77753 9.39003 4.77753 8.81944L4.77382 8.8269ZM15.5899 5.98142C15.9875 6.38045 16.5114 6.58184 17.0315 6.58184C17.5517 6.58184 18.0756 6.38418 18.4732 5.98515C18.8596 5.59729 19.0714 5.08265 19.0714 4.53817C19.0714 3.98995 18.8596 3.47531 18.4732 3.09118C17.6781 2.29311 16.385 2.29311 15.5862 3.09118C14.791 3.88926 14.791 5.18707 15.5862 5.98887L15.5899 5.98142Z" stroke="#FFF9E6" stroke-width="1.55948" mask="url(#path-1-inside-1_25_1311)"/>
</svg>
