<svg width="14" height="14" viewBox="0 0 14 14" fill="none" xmlns="http://www.w3.org/2000/svg">
<path d="M8.59917 0.630921C8.65666 0.630818 8.71361 0.642048 8.76676 0.663968C8.81991 0.685889 8.86821 0.718069 8.90892 0.758671L13.2402 5.08992C13.3222 5.17196 13.3683 5.28322 13.3683 5.39923C13.3683 5.51524 13.3222 5.6265 13.2402 5.70855C12.8202 6.12855 12.3022 6.22305 11.925 6.22305C11.7702 6.22305 11.6319 6.2073 11.5225 6.18892L8.78029 8.93117C8.85248 9.22203 8.89932 9.5186 8.92029 9.81755C8.96054 10.4318 8.89229 11.2937 8.29029 11.8957C8.20825 11.9777 8.09699 12.0238 7.98098 12.0238C7.86497 12.0238 7.75371 11.9777 7.67167 11.8957L5.19629 9.42117L2.41204 12.2054C2.24142 12.376 1.34542 12.9947 1.17479 12.824C1.00417 12.6534 1.62279 11.7565 1.79342 11.5868L4.57767 8.80255L2.10317 6.32717C2.02115 6.24513 1.97507 6.13387 1.97507 6.01786C1.97507 5.90185 2.02115 5.79059 2.10317 5.70855C2.70517 5.10655 3.56704 5.03742 4.18129 5.07855C4.48024 5.09949 4.77681 5.14634 5.06767 5.21855L7.80992 2.47717C7.78703 2.34392 7.77532 2.209 7.77492 2.0738C7.77492 1.69755 7.86942 1.17955 8.29029 0.758671C8.37229 0.676886 8.48336 0.630946 8.59917 0.630921V0.630921ZM8.70592 2.47892V2.47717V2.47892ZM8.70592 2.47717V2.47892C8.73119 2.55589 8.73459 2.63837 8.71574 2.71716C8.69689 2.79595 8.65653 2.86797 8.59917 2.92517L5.50604 6.01742C5.44857 6.07465 5.37632 6.11477 5.29737 6.13331C5.21841 6.15185 5.13586 6.14808 5.05892 6.12242H5.05717L5.04492 6.11892C4.96167 6.09398 4.87763 6.07181 4.79292 6.05242C4.5728 6.00108 4.34899 5.96714 4.12354 5.95092C3.75429 5.92642 3.39204 5.95792 3.09542 6.08217L7.91667 10.9025C8.04004 10.605 8.07154 10.2437 8.04704 9.87442C8.02475 9.56181 7.96842 9.25256 7.87904 8.95217L7.87554 8.9408V8.93992C7.84971 8.86286 7.84584 8.78013 7.86439 8.701C7.88294 8.62187 7.92316 8.54947 7.98054 8.49192L11.0745 5.3988C11.1341 5.33885 11.2098 5.29745 11.2924 5.27959C11.375 5.26174 11.461 5.26819 11.54 5.29817L11.624 5.31742C11.7002 5.3323 11.806 5.34717 11.925 5.34717C12.0248 5.34717 12.1263 5.33755 12.2252 5.31217L8.68579 1.77367C8.66042 1.87255 8.65079 1.97492 8.65079 2.0738C8.65122 2.20976 8.66946 2.34507 8.70504 2.4763L8.70592 2.47717Z" fill="white"/>
</svg>
