<svg width="20" height="20" viewBox="0 0 20 20" fill="none" xmlns="http://www.w3.org/2000/svg">
<path d="M3.21224 10.0468L3.21215 10.0467L3.20921 10.0548C2.92903 10.8253 3.47547 11.7106 4.31431 11.7106H8.45104C9.35691 11.7106 9.82989 10.8076 9.55614 10.0548L9.55623 10.0548L9.5531 10.0468C9.24518 9.25495 8.63381 8.64466 7.8871 8.28392C8.234 7.87831 8.44693 7.33167 8.44693 6.74078C8.44693 5.53484 7.5748 4.47952 6.38267 4.47952C5.19054 4.47952 4.31841 5.53485 4.31841 6.74078C4.31841 7.32475 4.52639 7.86551 4.86612 8.26962C4.11526 8.62612 3.51422 9.27025 3.21224 10.0468ZM1.3595 1.12254H18.1034C18.4298 1.12254 18.6985 1.39121 18.6985 1.7176V18.4615C18.6985 18.7879 18.4298 19.0566 18.1034 19.0566H1.3595C1.0331 19.0566 0.764432 18.7879 0.764432 18.4615V1.7176C0.764432 1.39121 1.0331 1.12254 1.3595 1.12254ZM4.31431 15.5026H14.8039C15.4793 15.5026 15.9324 14.966 15.9324 14.374C15.9324 13.7647 15.4132 13.2455 14.8039 13.2455H4.31431C3.70501 13.2455 3.18573 13.7647 3.18573 14.374C3.18573 14.9833 3.70501 15.5026 4.31431 15.5026ZM11.2089 11.6121H14.8039C15.4459 11.6121 15.9817 11.109 15.9817 10.4835C15.9817 9.87423 15.4624 9.35495 14.8531 9.35495H11.2089C10.5996 9.35495 10.0803 9.87423 10.0803 10.4835C10.0803 11.0928 10.5996 11.6121 11.2089 11.6121ZM11.2089 8.55881H14.8039C15.4459 8.55881 15.9817 8.05568 15.9817 7.43023C15.9817 6.82094 15.4624 6.30166 14.8531 6.30166H11.2089C10.5996 6.30166 10.0803 6.82094 10.0803 7.43023C10.0803 8.03953 10.5996 8.55881 11.2089 8.55881Z" stroke="#FFF9E6" stroke-width="0.779741"/>
</svg>
