<svg width="44" height="44" viewBox="0 0 44 44" fill="none" xmlns="http://www.w3.org/2000/svg">
<circle cx="22.4013" cy="22.1775" r="13.5417" transform="rotate(150 22.4013 22.1775)" stroke="#F7EAD1" stroke-width="0.483633"/>
<path d="M10.6688 28.9512C9.6306 29.5506 9.26385 30.8897 10.0004 31.8355C11.2655 33.4598 12.8419 34.8255 14.6448 35.8484C17.0794 37.2297 19.8387 37.9358 22.6375 37.8938C25.4364 37.8517 28.1733 37.0629 30.5652 35.609C32.3366 34.5324 33.8712 33.1199 35.0868 31.4583C35.7946 30.4909 35.3878 29.1633 34.3321 28.5954C33.2764 28.0275 31.9745 28.4405 31.2167 29.3694C30.4021 30.3678 29.4205 31.2247 28.3105 31.8994C26.5791 32.9518 24.5981 33.5227 22.5723 33.5531C20.5464 33.5836 18.5492 33.0725 16.787 32.0727C15.6572 31.4316 14.6502 30.6046 13.806 29.6311C13.0206 28.7255 11.7069 28.3518 10.6688 28.9512Z" fill="#F7EAD1"/>
<path d="M15.2778 26.2902L16.2603 23.0153H20.8452L21.8276 26.2902H15.2778ZM23.1376 26.2902L24.1201 23.0153H28.7049L29.6874 26.2902H23.1376ZM18.5527 21.7053L19.5352 18.4304H24.1201L25.1025 21.7053H18.5527ZM29.6874 15.8432L27.1592 16.5572L26.4453 19.0854L25.7313 16.5572L23.2031 15.8432L25.7313 15.1293L26.4453 12.6011L27.1592 15.1293L29.6874 15.8432Z" fill="#F7EAD1"/>
</svg>
