<svg width="14" height="14" viewBox="0 0 14 14" fill="none" xmlns="http://www.w3.org/2000/svg">
<g clip-path="url(#clip0_427_10475)">
<rect width="14" height="14" fill="white" fill-opacity="0.01"/>
<g clip-path="url(#clip1_427_10475)">
<path d="M13.1246 12.2492C13.1246 12.2492 13.9996 12.2492 13.9996 11.3742C13.9996 10.4992 13.1246 7.87418 9.62463 7.87418C6.12463 7.87418 5.24963 10.4992 5.24963 11.3742C5.24963 12.2492 6.12463 12.2492 6.12463 12.2492H13.1246ZM6.14388 11.3742C6.13742 11.3733 6.131 11.3721 6.12463 11.3707C6.12551 11.1397 6.27076 10.4694 6.78963 9.86568C7.27263 9.29955 8.12138 8.74918 9.62463 8.74918C11.127 8.74918 11.9758 9.30043 12.4596 9.86568C12.9785 10.4694 13.1229 11.1406 13.1246 11.3707L13.1176 11.3724C13.1136 11.3731 13.1095 11.3737 13.1054 11.3742H6.14388V11.3742ZM9.62463 6.12418C10.0888 6.12418 10.5339 5.9398 10.8621 5.61161C11.1903 5.28342 11.3746 4.8383 11.3746 4.37418C11.3746 3.91005 11.1903 3.46493 10.8621 3.13674C10.5339 2.80855 10.0888 2.62418 9.62463 2.62418C9.1605 2.62418 8.71539 2.80855 8.3872 3.13674C8.05901 3.46493 7.87463 3.91005 7.87463 4.37418C7.87463 4.8383 8.05901 5.28342 8.3872 5.61161C8.71539 5.9398 9.1605 6.12418 9.62463 6.12418ZM12.2496 4.37418C12.2496 4.7189 12.1817 5.06024 12.0498 5.37872C11.9179 5.6972 11.7245 5.98658 11.4808 6.23033C11.237 6.47409 10.9477 6.66744 10.6292 6.79936C10.3107 6.93128 9.96935 6.99918 9.62463 6.99918C9.27991 6.99918 8.93857 6.93128 8.62009 6.79936C8.30161 6.66744 8.01223 6.47409 7.76848 6.23033C7.52472 5.98658 7.33137 5.6972 7.19945 5.37872C7.06753 5.06024 6.99963 4.7189 6.99963 4.37418C6.99963 3.67798 7.2762 3.0103 7.76848 2.51802C8.26076 2.02574 8.92844 1.74918 9.62463 1.74918C10.3208 1.74918 10.9885 2.02574 11.4808 2.51802C11.9731 3.0103 12.2496 3.67798 12.2496 4.37418V4.37418ZM6.06863 8.11918C5.71862 8.00896 5.35781 7.93651 4.99238 7.90305C4.78705 7.88353 4.58089 7.87389 4.37463 7.87418C0.874634 7.87418 -0.000366211 10.4992 -0.000366211 11.3742C-0.000366211 11.9578 0.291009 12.2492 0.874634 12.2492H4.56363C4.43392 11.976 4.36923 11.6765 4.37463 11.3742C4.37463 10.4904 4.70451 9.58743 5.32838 8.83318C5.54101 8.57593 5.78863 8.3353 6.06863 8.11918ZM4.30463 8.74918C3.78677 9.52729 3.50702 10.4395 3.49963 11.3742H0.874634C0.874634 11.1467 1.01813 10.4729 1.53963 9.86568C2.01651 9.30918 2.84513 8.76668 4.30463 8.75005V8.74918ZM1.31213 4.81168C1.31213 4.11548 1.5887 3.4478 2.08098 2.95552C2.57326 2.46324 3.24094 2.18668 3.93713 2.18668C4.63333 2.18668 5.30101 2.46324 5.79329 2.95552C6.28557 3.4478 6.56213 4.11548 6.56213 4.81168C6.56213 5.50787 6.28557 6.17555 5.79329 6.66783C5.30101 7.16011 4.63333 7.43668 3.93713 7.43668C3.24094 7.43668 2.57326 7.16011 2.08098 6.66783C1.5887 6.17555 1.31213 5.50787 1.31213 4.81168V4.81168ZM3.93713 3.06168C3.473 3.06168 3.02789 3.24605 2.6997 3.57424C2.37151 3.90243 2.18713 4.34755 2.18713 4.81168C2.18713 5.2758 2.37151 5.72092 2.6997 6.04911C3.02789 6.3773 3.473 6.56168 3.93713 6.56168C4.40126 6.56168 4.84638 6.3773 5.17457 6.04911C5.50276 5.72092 5.68713 5.2758 5.68713 4.81168C5.68713 4.34755 5.50276 3.90243 5.17457 3.57424C4.84638 3.24605 4.40126 3.06168 3.93713 3.06168Z" fill="white"/>
</g>
</g>
<defs>
<clipPath id="clip0_427_10475">
<rect width="14" height="14" fill="white"/>
</clipPath>
<clipPath id="clip1_427_10475">
<rect width="14" height="14" fill="white"/>
</clipPath>
</defs>
</svg>
