<svg width="28" height="28" viewBox="0 0 28 28" fill="none" xmlns="http://www.w3.org/2000/svg">
<path d="M3.5118 1.48062L3.11294 1.24992L2.78713 1.57574L1.57574 2.78713L1.24996 3.11291L1.48059 3.51174L3.6146 7.20221L3.81835 7.55457L4.22108 7.49551L5.30677 7.33627L10.8539 12.884L10.6294 13.1084L7.50805 16.2289C7.21147 16.1821 6.91136 16.1596 6.61074 16.1618C3.69715 16.1631 1.4 18.461 1.4 21.3749C1.4 24.2896 3.69838 26.588 6.61308 26.588C9.52777 26.588 11.8262 24.2896 11.8262 21.3749C11.8262 20.9679 11.7774 20.5748 11.6918 20.2004L13.4089 18.4833L13.6444 18.2478C13.9974 18.4101 14.4065 18.4405 14.7656 18.2959L15.2987 18.8285C15.2646 19.4429 15.4176 20.1586 15.963 20.704L15.9642 20.7053L20.9507 25.6631C20.9509 25.6633 20.9511 25.6635 20.9512 25.6637C22.1976 26.9094 24.2313 26.9121 25.4811 25.6717C26.9135 24.3412 26.9244 22.2994 25.6638 21.038C25.6635 21.0378 25.6633 21.0376 25.6631 21.0374L20.7053 16.0501L20.704 16.0488C20.1969 15.5417 19.4773 15.2647 18.7794 15.3587L18.1297 14.7714C18.1793 14.6075 18.2033 14.4394 18.2033 14.2767C18.2033 14.1314 18.1838 13.9772 18.1386 13.8261L18.2325 13.9199L18.6568 13.4957L19.1462 13.0062C19.9213 13.3997 20.7334 13.6349 21.5387 13.6273C22.5011 13.6182 23.4134 13.2616 24.1846 12.4942C24.9096 11.8175 25.6238 10.6984 26.0772 9.53186C26.5251 8.37956 26.7772 7.02914 26.3776 5.94435L26.0474 5.04828L25.3834 5.73454L22.7931 8.41136C22.6587 8.54335 22.481 8.54244 22.3472 8.40863L22.3472 8.40855L19.6651 5.72743L19.6652 5.72734L19.6562 5.71871C19.6271 5.69084 19.604 5.65737 19.5882 5.62034L19.0363 5.85574L19.5882 5.62033C19.5724 5.5833 19.5643 5.54344 19.5643 5.50317C19.5643 5.4629 19.5724 5.42305 19.5882 5.38601L19.0363 5.1506L19.5882 5.386C19.604 5.34897 19.6271 5.31551 19.6562 5.28763L19.6563 5.28772L19.665 5.27898L22.348 2.59786L23.0223 1.92401L22.1231 1.60749C21.8316 1.50487 21.5482 1.45586 21.2533 1.43076L21.2521 1.43066C20.2056 1.34367 19.0436 1.64566 18.0266 2.07868C17.0042 2.51402 16.0561 3.11271 15.4309 3.69349L15.4228 3.70101L15.415 3.70882C14.6037 4.5201 14.25 5.48052 14.2752 6.49136C14.2962 7.33604 14.5801 8.1865 15.0281 8.99772L13.3971 10.6295L13.0286 10.9982L7.33684 5.30644L7.4947 4.2203L7.55315 3.81811L7.20134 3.61463L3.5118 1.48062ZM5.34516 20.1061L7.0677 19.6493L8.33785 20.9201L7.88099 22.6419L6.15925 23.0987L4.88834 21.8278L5.34516 20.1061Z" stroke="#F7EAD1" stroke-width="1.2"/>
</svg>
