<svg width="36" height="36" viewBox="0 0 36 36" fill="none" xmlns="http://www.w3.org/2000/svg">
<path fill-rule="evenodd" clip-rule="evenodd" d="M12.2147 3.44727C10.7961 3.44739 9.39802 3.78676 8.13723 4.43707C6.87643 5.08738 5.78943 6.02977 4.96692 7.18562C4.14441 8.34146 3.61024 9.67725 3.40897 11.0815C3.20769 12.4858 3.34516 13.9179 3.8099 15.2582C4.27464 16.5985 5.05318 17.8083 6.08055 18.7866C7.10793 19.7648 8.35435 20.4832 9.71583 20.8818C11.0773 21.2804 12.5144 21.3476 13.9071 21.0779C15.2999 20.8081 16.6079 20.2092 17.7221 19.3311L21.5445 23.1535C21.7419 23.3441 22.0062 23.4496 22.2807 23.4472C22.5551 23.4448 22.8176 23.3348 23.0117 23.1407C23.2057 22.9467 23.3158 22.6841 23.3182 22.4097C23.3206 22.1353 23.2151 21.8709 23.0244 21.6735L19.2021 17.8512C20.2361 16.5393 20.88 14.9629 21.06 13.3022C21.2399 11.6415 20.9487 9.96369 20.2196 8.46078C19.4906 6.95788 18.3531 5.69059 16.9374 4.80396C15.5218 3.91732 13.8851 3.44715 12.2147 3.44727ZM5.4115 12.3437C5.4115 10.5394 6.12826 8.809 7.4041 7.53316C8.67995 6.25731 10.4104 5.54055 12.2147 5.54055C14.019 5.54055 15.7494 6.25731 17.0253 7.53316C18.3011 8.809 19.0179 10.5394 19.0179 12.3437C19.0179 14.148 18.3011 15.8785 17.0253 17.1543C15.7494 18.4302 14.019 19.1469 12.2147 19.1469C10.4104 19.1469 8.67995 18.4302 7.4041 17.1543C6.12826 15.8785 5.4115 14.148 5.4115 12.3437Z" fill="#CC9900"/>
</svg>
