<svg width="22" height="22" viewBox="0 0 22 22" fill="none" xmlns="http://www.w3.org/2000/svg">
<path d="M21.1439 10.7393C21.1439 16.1058 16.7938 20.4559 11.4273 20.4559C6.06074 20.4559 1.7106 16.1058 1.7106 10.7393C1.7106 5.37275 6.06074 1.02261 11.4273 1.02261C16.7938 1.02261 21.1439 5.37275 21.1439 10.7393Z" stroke="#F7EAD1" stroke-width="1.61944"/>
<path fill-rule="evenodd" clip-rule="evenodd" d="M11.4274 3.63379C11.6368 3.63379 11.8376 3.71697 11.9856 3.86502C12.1337 4.01308 12.2169 4.21389 12.2169 4.42327V4.75695C13.9327 5.06433 15.3748 6.35381 15.3748 8.1075C15.3748 8.31689 15.2916 8.51769 15.1435 8.66575C14.9955 8.81381 14.7947 8.89698 14.5853 8.89698C14.3759 8.89698 14.1751 8.81381 14.027 8.66575C13.879 8.51769 13.7958 8.31689 13.7958 8.1075C13.7958 7.39382 13.2021 6.63697 12.2169 6.36749V10.0202C13.9327 10.3275 15.3748 11.617 15.3748 13.3707C15.3748 15.1244 13.9327 16.4139 12.2169 16.7213V17.0549C12.2169 17.2643 12.1337 17.4651 11.9856 17.6132C11.8376 17.7612 11.6368 17.8444 11.4274 17.8444C11.218 17.8444 11.0172 17.7612 10.8691 17.6132C10.7211 17.4651 10.6379 17.2643 10.6379 17.0549V16.7213C8.9221 16.4139 7.47998 15.1244 7.47998 13.3707C7.47998 13.1613 7.56316 12.9605 7.71121 12.8125C7.85927 12.6644 8.06008 12.5812 8.26946 12.5812C8.47884 12.5812 8.67965 12.6644 8.82771 12.8125C8.97576 12.9605 9.05894 13.1613 9.05894 13.3707C9.05894 14.0844 9.65263 14.8412 10.6379 15.1097V11.4581C8.9221 11.1507 7.47998 9.8612 7.47998 8.1075C7.47998 6.35381 8.9221 5.06433 10.6379 4.75695V4.42327C10.6379 4.21389 10.7211 4.01308 10.8691 3.86502C11.0172 3.71697 11.218 3.63379 11.4274 3.63379ZM10.6379 6.36749C9.65263 6.63697 9.05894 7.39382 9.05894 8.1075C9.05894 8.82119 9.65263 9.57804 10.6379 9.84647V6.36749ZM13.7958 13.3707C13.7958 12.657 13.2021 11.9002 12.2169 11.6317V15.1097C13.2021 14.8412 13.7958 14.0844 13.7958 13.3707Z" fill="#F7EAD1"/>
</svg>
