<svg width="30" height="29" viewBox="0 0 30 29" fill="none" xmlns="http://www.w3.org/2000/svg">
<path d="M13.4489 7.03345L7.51202 12.8099H9.5586L13.4489 9.0291V7.03345Z" fill="white"/>
<path d="M13.4489 6.10381V4.11255L4.50527 12.8101H6.55185L13.4489 6.10381Z" fill="white"/>
<path d="M13.4489 2.75281C13.4489 2.55544 13.3633 2.37122 13.2145 2.23526C13.0883 2.12122 12.926 2.05981 12.7592 2.05981L12.5158 2.08613L2.42714 11.9065C2.42263 11.9635 2.40911 12.0205 2.40009 12.0819C2.38206 12.2661 2.44517 12.446 2.5759 12.5863C2.71114 12.7311 2.90497 12.8144 3.10783 12.8144H3.54509L13.4489 3.17826V2.75281Z" fill="white"/>
<path d="M13.4489 12.1257V9.95898L10.5188 12.8099H12.7457C13.1334 12.8099 13.4489 12.5029 13.4489 12.1257Z" fill="white"/>
<path d="M25.9493 9.56423C24.11 6.85804 21.0807 4.97643 17.497 4.64747C17.3076 4.62993 17.1273 4.69133 16.9831 4.81853C16.8343 4.95011 16.7487 5.13871 16.7487 5.33608V14.424L25.9493 9.56861V9.56423Z" fill="white"/>
<path d="M2.61647 10.7924L11.3708 2.27466C6.99362 3.19134 3.55862 6.53351 2.61647 10.7924Z" fill="white"/>
<path d="M19.3948 20.1653L20.1161 21.4635L23.3257 18.3407L21.8606 17.7661L19.3948 20.1653Z" fill="white"/>
<path d="M21.509 23.9637L22.1897 25.1874C22.2077 25.2225 22.2212 25.262 22.2257 25.3014C24.403 24.047 26.107 22.1128 27.0447 19.8013L26.1566 19.4548L21.5135 23.9725L21.509 23.9637Z" fill="white"/>
<path d="M26.3054 10.1255L16.8659 15.1036L19.7599 16.2352C19.7599 16.2352 19.7644 16.2352 19.7689 16.2352L21.9012 17.0686H21.9102L26.1927 18.744C26.1927 18.744 26.1927 18.744 26.1972 18.744L27.2701 19.1651C27.5631 18.2923 27.7569 17.3756 27.8155 16.4194C27.9643 14.1211 27.3963 11.9544 26.3009 10.1123L26.3054 10.1255Z" fill="white"/>
<path d="M18.0064 17.6652L19.0387 16.6608L17.0056 15.8669L18.0064 17.6652Z" fill="white"/>
<path d="M25.4714 19.1786L24.0064 18.6084L20.4541 22.0646L21.1754 23.3585L25.4714 19.1786Z" fill="white"/>
<path d="M18.34 18.2706L19.0612 19.5601L21.1799 17.4987L19.7194 16.9285L18.34 18.2706Z" fill="white"/>
<path d="M16.1897 15.7793C15.9598 15.946 15.6758 16.0512 15.3693 16.0512H5.73141C5.52856 16.0512 5.33472 16.1346 5.19948 16.2793C5.06876 16.4197 5.00565 16.5951 5.02368 16.7793C5.60519 22.7882 10.9245 27.2006 17.1363 26.8234C18.7682 26.7269 20.3009 26.2839 21.6803 25.5865C21.6487 25.5602 21.6127 25.5382 21.5946 25.4988L16.1852 15.7793H16.1897Z" fill="white"/>
</svg>
