<svg width="18" height="18" viewBox="0 0 18 18" fill="none" xmlns="http://www.w3.org/2000/svg">
<path fill-rule="evenodd" clip-rule="evenodd" d="M5.89506 2.27947C5.89506 1.75832 6.10209 1.25851 6.4706 0.889994C6.83912 0.521481 7.33893 0.314453 7.86008 0.314453H9.8251C10.3463 0.314453 10.8461 0.521481 11.2146 0.889994C11.5831 1.25851 11.7901 1.75832 11.7901 2.27947V6.20951H15.7202C16.2413 6.20951 16.7411 6.41654 17.1096 6.78506C17.4782 7.15357 17.6852 7.65338 17.6852 8.17454V10.1396C17.6852 10.6607 17.4782 11.1605 17.1096 11.529C16.7411 11.8975 16.2413 12.1046 15.7202 12.1046H11.7901V16.0346C11.7901 16.5558 11.5831 17.0556 11.2146 17.4241C10.8461 17.7926 10.3463 17.9996 9.8251 17.9996H7.86008C7.33893 17.9996 6.83912 17.7926 6.4706 17.4241C6.10209 17.0556 5.89506 16.5558 5.89506 16.0346V12.1046H1.96502C1.44386 12.1046 0.944054 11.8975 0.575541 11.529C0.207028 11.1605 0 10.6607 0 10.1396V8.17454C0 7.65338 0.207028 7.15357 0.575541 6.78506C0.944054 6.41654 1.44386 6.20951 1.96502 6.20951H5.89506V2.27947Z" fill="#CC9900"/>
</svg>
