<svg width="14" height="14" viewBox="0 0 14 14" fill="none" xmlns="http://www.w3.org/2000/svg">
<g clip-path="url(#clip0_423_563)">
<path d="M9.62463 1.74918C9.62463 1.51711 9.71682 1.29455 9.88092 1.13046C10.045 0.966365 10.2676 0.874178 10.4996 0.874178H12.2496C12.4817 0.874178 12.7043 0.966365 12.8684 1.13046C13.0324 1.29455 13.1246 1.51711 13.1246 1.74918V12.2492H13.5621C13.6782 12.2492 13.7894 12.2953 13.8715 12.3773C13.9535 12.4594 13.9996 12.5706 13.9996 12.6867C13.9996 12.8027 13.9535 12.914 13.8715 12.996C13.7894 13.0781 13.6782 13.1242 13.5621 13.1242H0.437134C0.321102 13.1242 0.209822 13.0781 0.127775 12.996C0.0457274 12.914 -0.000366211 12.8027 -0.000366211 12.6867C-0.000366211 12.5706 0.0457274 12.4594 0.127775 12.3773C0.209822 12.2953 0.321102 12.2492 0.437134 12.2492H0.874634V9.62418C0.874634 9.39211 0.966821 9.16955 1.13092 9.00546C1.29501 8.84137 1.51757 8.74918 1.74963 8.74918H3.49963C3.7317 8.74918 3.95426 8.84137 4.11835 9.00546C4.28245 9.16955 4.37463 9.39211 4.37463 9.62418V12.2492H5.24963V6.12418C5.24963 5.89211 5.34182 5.66955 5.50592 5.50546C5.67001 5.34137 5.89257 5.24918 6.12463 5.24918H7.87463C8.1067 5.24918 8.32926 5.34137 8.49335 5.50546C8.65745 5.66955 8.74963 5.89211 8.74963 6.12418V12.2492H9.62463V1.74918ZM10.4996 12.2492H12.2496V1.74918H10.4996V12.2492ZM7.87463 12.2492V6.12418H6.12463V12.2492H7.87463ZM3.49963 12.2492V9.62418H1.74963V12.2492H3.49963Z" fill="white"/>
</g>
<defs>
<clipPath id="clip0_423_563">
<rect width="14" height="14" fill="white"/>
</clipPath>
</defs>
</svg>
