<svg width="14" height="14" viewBox="0 0 14 14" fill="none" xmlns="http://www.w3.org/2000/svg">
<g clip-path="url(#clip0_318_1630)">
<path fill-rule="evenodd" clip-rule="evenodd" d="M-0.000244141 -0.000854492H0.874756V13.1241H13.9998V13.9991H-0.000244141V-0.000854492ZM8.74976 3.06165C8.74976 2.94561 8.79585 2.83433 8.8779 2.75229C8.95994 2.67024 9.07122 2.62415 9.18726 2.62415H12.6873C12.8033 2.62415 12.9146 2.67024 12.9966 2.75229C13.0787 2.83433 13.1248 2.94561 13.1248 3.06165V6.56165C13.1248 6.67768 13.0787 6.78896 12.9966 6.871C12.9146 6.95305 12.8033 6.99915 12.6873 6.99915C12.5712 6.99915 12.4599 6.95305 12.3779 6.871C12.2958 6.78896 12.2498 6.67768 12.2498 6.56165V4.28665L9.08838 8.15152C9.04968 8.19876 9.00152 8.23737 8.947 8.26487C8.89247 8.29238 8.8328 8.30816 8.77181 8.31121C8.71082 8.31426 8.64986 8.30451 8.59287 8.28258C8.53587 8.26065 8.4841 8.22704 8.44088 8.1839L6.17726 5.92027L2.97826 10.3189C2.90828 10.4079 2.80653 10.4663 2.69439 10.4818C2.58226 10.4973 2.46847 10.4688 2.37693 10.4022C2.2854 10.3356 2.22325 10.2361 2.20354 10.1246C2.18383 10.0131 2.20811 9.89835 2.27126 9.8044L5.77126 4.9919C5.80841 4.94072 5.85621 4.89821 5.91137 4.86728C5.96653 4.83636 6.02774 4.81776 6.09078 4.81277C6.15382 4.80778 6.21719 4.81652 6.27653 4.83838C6.33587 4.86024 6.38977 4.8947 6.43451 4.9394L8.71738 7.22315L11.7641 3.49915H9.18726C9.07122 3.49915 8.95994 3.45305 8.8779 3.371C8.79585 3.28896 8.74976 3.17768 8.74976 3.06165Z" fill="#FEFEFE"/>
</g>
<defs>
<clipPath id="clip0_318_1630">
<rect width="14" height="14" fill="white"/>
</clipPath>
</defs>
</svg>
