<?xml version="1.0" encoding="iso-8859-1"?>
<!-- Generator: Adobe Illustrator 19.0.1, SVG Export Plug-In . SVG Version: 6.00 Build 0)  -->
<svg version="1.1" xmlns="http://www.w3.org/2000/svg" xmlns:xlink="http://www.w3.org/1999/xlink" x="0px" y="0px"
	 viewBox="0 0 128 128" style="enable-background:new 0 0 128 128;" xml:space="preserve">
<g id="_x32_">
	<path id="icon_1_" style="fill:#191919;" d="M66.647,77.94L128,49.733v5.14L66.491,83.174L12.303,53.876l-0.016,0.047
		c-2.461-0.81-5.124,0.53-5.934,2.991c-1.371,3.863,3.084,5.997,3.598,6.23l0.156,0.078l55.154,29.812L128,64.171v5.156
		L65.089,98.251L10.917,68.969L10.901,69c-1.184-0.389-2.461-0.296-3.583,0.28c-1.137,0.561-1.962,1.526-2.352,2.71
		c-1.402,3.987,3.38,6.137,3.582,6.23l0.171,0.078l55.154,29.812L128,77.785v5.171l-64.297,30.373L6.571,82.457
		c-3.115-1.402-8.255-5.654-6.028-11.978c0.717-2.181,2.243-4.018,4.283-5.156c-2.43-2.134-4.455-5.514-2.897-9.922
		c0.763-2.274,2.321-4.081,4.283-5.171c-2.43-2.118-4.439-5.514-2.882-9.906c0.763-2.321,2.43-4.252,4.657-5.389
		c2.056-1.028,62.35-20.264,62.35-20.264L128,40.06L66.569,66.835l-52.88-27.99c-0.016,0-0.031-0.016-0.047-0.016
		c-2.461-0.794-5.078,0.561-5.903,3.006c-1.355,3.863,3.1,5.997,3.598,6.23l0.171,0.078L66.647,77.94z"/>
</g>
<g id="Layer_1">
</g>
</svg>
