<svg width="14" height="13" viewBox="0 0 14 13" fill="none" xmlns="http://www.w3.org/2000/svg">
<path d="M-0.000244141 1.18665C-0.000244141 1.07061 0.0458495 0.959334 0.127897 0.877286C0.209944 0.795239 0.321224 0.749146 0.437256 0.749146H1.74976C1.84735 0.749172 1.94212 0.781827 2.01902 0.841917C2.09592 0.902007 2.15051 0.986081 2.17413 1.08077L2.52851 2.49915H12.6873C12.7537 2.49916 12.8193 2.51432 12.879 2.54347C12.9387 2.57261 12.991 2.61498 13.0319 2.66736C13.0728 2.71973 13.1013 2.78073 13.1151 2.84574C13.1289 2.91074 13.1277 2.97804 13.1116 3.04252L11.7991 8.29252C11.7755 8.38721 11.7209 8.47128 11.644 8.53137C11.5671 8.59146 11.4723 8.62412 11.3748 8.62415H3.49976C3.40217 8.62412 3.30739 8.59146 3.23049 8.53137C3.1536 8.47128 3.099 8.38721 3.07538 8.29252L1.40851 1.62415H0.437256C0.321224 1.62415 0.209944 1.57805 0.127897 1.496C0.0458495 1.41396 -0.000244141 1.30268 -0.000244141 1.18665ZM2.74726 3.37415L3.84101 7.74915H11.0335L12.1273 3.37415H2.74726ZM4.37476 10.3741C4.14269 10.3741 3.92013 10.4663 3.75604 10.6304C3.59194 10.7945 3.49976 11.0171 3.49976 11.2491C3.49976 11.4812 3.59194 11.7038 3.75604 11.8679C3.92013 12.032 4.14269 12.1241 4.37476 12.1241C4.60682 12.1241 4.82938 12.032 4.99347 11.8679C5.15757 11.7038 5.24976 11.4812 5.24976 11.2491C5.24976 11.0171 5.15757 10.7945 4.99347 10.6304C4.82938 10.4663 4.60682 10.3741 4.37476 10.3741ZM2.62476 11.2491C2.62476 10.785 2.80913 10.3399 3.13732 10.0117C3.46551 9.68352 3.91063 9.49915 4.37476 9.49915C4.83888 9.49915 5.284 9.68352 5.61219 10.0117C5.94038 10.3399 6.12476 10.785 6.12476 11.2491C6.12476 11.7133 5.94038 12.1584 5.61219 12.4866C5.284 12.8148 4.83888 12.9991 4.37476 12.9991C3.91063 12.9991 3.46551 12.8148 3.13732 12.4866C2.80913 12.1584 2.62476 11.7133 2.62476 11.2491ZM10.4998 10.3741C10.2677 10.3741 10.0451 10.4663 9.88104 10.6304C9.71694 10.7945 9.62476 11.0171 9.62476 11.2491C9.62476 11.4812 9.71694 11.7038 9.88104 11.8679C10.0451 12.032 10.2677 12.1241 10.4998 12.1241C10.7318 12.1241 10.9544 12.032 11.1185 11.8679C11.2826 11.7038 11.3748 11.4812 11.3748 11.2491C11.3748 11.0171 11.2826 10.7945 11.1185 10.6304C10.9544 10.4663 10.7318 10.3741 10.4998 10.3741ZM8.74976 11.2491C8.74976 10.785 8.93413 10.3399 9.26232 10.0117C9.59051 9.68352 10.0356 9.49915 10.4998 9.49915C10.9639 9.49915 11.409 9.68352 11.7372 10.0117C12.0654 10.3399 12.2498 10.785 12.2498 11.2491C12.2498 11.7133 12.0654 12.1584 11.7372 12.4866C11.409 12.8148 10.9639 12.9991 10.4998 12.9991C10.0356 12.9991 9.59051 12.8148 9.26232 12.4866C8.93413 12.1584 8.74976 11.7133 8.74976 11.2491Z" fill="white"/>
</svg>
