<svg width="14" height="14" viewBox="0 0 14 14" fill="none" xmlns="http://www.w3.org/2000/svg">
<g clip-path="url(#clip0_324_5227)">
<rect width="14" height="14" fill="white" fill-opacity="0.01"/>
<g clip-path="url(#clip1_324_5227)">
<path d="M6.99981 4.15895C6.62682 4.15895 6.25748 4.23241 5.91289 4.37515C5.56829 4.51788 5.25519 4.72709 4.99145 4.99084C4.7277 5.25458 4.51849 5.56768 4.37576 5.91228C4.23302 6.25687 4.15956 6.62621 4.15956 6.9992C4.15956 7.37218 4.23302 7.74152 4.37576 8.08611C4.51849 8.43071 4.7277 8.74382 4.99145 9.00756C5.25519 9.2713 5.56829 9.48051 5.91289 9.62325C6.25748 9.76598 6.62682 9.83945 6.99981 9.83945C7.75309 9.83945 8.47552 9.54021 9.00817 9.00756C9.54082 8.47491 9.84006 7.75248 9.84006 6.9992C9.84006 6.24591 9.54082 5.52349 9.00817 4.99084C8.47552 4.45819 7.75309 4.15895 6.99981 4.15895ZM5.03456 6.9992C5.03456 6.47798 5.24161 5.97811 5.61016 5.60955C5.97872 5.241 6.47859 5.03395 6.99981 5.03395C7.52102 5.03395 8.02089 5.241 8.38945 5.60955C8.758 5.97811 8.96506 6.47798 8.96506 6.9992C8.96506 7.52041 8.758 8.02028 8.38945 8.38884C8.02089 8.75739 7.52102 8.96445 6.99981 8.96445C6.47859 8.96445 5.97872 8.75739 5.61016 8.38884C5.24161 8.02028 5.03456 7.52041 5.03456 6.9992Z" fill="#FDFCFC"/>
<path d="M8.57131 1.17432C8.11018 -0.391929 5.88943 -0.391929 5.42831 1.17432L5.34606 1.45345C5.31385 1.56278 5.25759 1.66352 5.1814 1.74828C5.1052 1.83305 5.011 1.89969 4.90571 1.94332C4.80041 1.98695 4.68668 2.00646 4.57287 2.00042C4.45905 1.99439 4.34802 1.96296 4.24793 1.90845L3.99243 1.76845C2.55743 0.987946 0.988557 2.5577 1.76993 3.99182L1.90906 4.24732C1.96357 4.34741 1.995 4.45844 2.00103 4.57226C2.00707 4.68607 1.98756 4.7998 1.94393 4.9051C1.9003 5.01039 1.83366 5.10459 1.7489 5.18079C1.66413 5.25698 1.56339 5.31324 1.45406 5.34545L1.17493 5.4277C-0.391318 5.88882 -0.391318 8.10957 1.17493 8.5707L1.45406 8.65295C1.56339 8.68515 1.66413 8.74141 1.7489 8.81761C1.83366 8.8938 1.9003 8.988 1.94393 9.0933C1.98756 9.19859 2.00707 9.31232 2.00103 9.42614C1.995 9.53995 1.96357 9.65098 1.90906 9.75107L1.76906 10.0066C0.988557 11.4416 2.55743 13.0113 3.99243 12.2291L4.24793 12.0899C4.34802 12.0354 4.45905 12.004 4.57287 11.998C4.68668 11.9919 4.80041 12.0114 4.90571 12.0551C5.011 12.0987 5.1052 12.1653 5.1814 12.2501C5.25759 12.3349 5.31385 12.4356 5.34606 12.5449L5.42831 12.8241C5.88943 14.3903 8.11018 14.3903 8.57131 12.8241L8.65356 12.5449C8.68576 12.4356 8.74202 12.3349 8.81822 12.2501C8.89441 12.1653 8.98861 12.0987 9.09391 12.0551C9.1992 12.0114 9.31293 11.9919 9.42675 11.998C9.54056 12.004 9.65159 12.0354 9.75168 12.0899L10.0072 12.2299C11.4422 13.0113 13.0119 11.4407 12.2297 10.0066L12.0906 9.75107C12.036 9.65098 12.0046 9.53995 11.9986 9.42614C11.9925 9.31232 12.0121 9.19859 12.0557 9.0933C12.0993 8.988 12.166 8.8938 12.2507 8.81761C12.3355 8.74141 12.4362 8.68515 12.5456 8.65295L12.8247 8.5707C14.3909 8.10957 14.3909 5.88882 12.8247 5.4277L12.5456 5.34545C12.4362 5.31324 12.3355 5.25698 12.2507 5.18079C12.166 5.10459 12.0993 5.01039 12.0557 4.9051C12.0121 4.7998 11.9925 4.68607 11.9986 4.57226C12.0046 4.45844 12.036 4.34741 12.0906 4.24732L12.2306 3.99182C13.0119 2.55682 11.4413 0.987946 10.0072 1.76932L9.75168 1.90845C9.65159 1.96296 9.54056 1.99439 9.42675 2.00042C9.31293 2.00646 9.1992 1.98695 9.09391 1.94332C8.98861 1.89969 8.89441 1.83305 8.81822 1.74828C8.74202 1.66352 8.68576 1.56278 8.65356 1.45345L8.57131 1.17432ZM6.26743 1.42195C6.48268 0.691321 7.51693 0.691321 7.73218 1.42195L7.81443 1.70107C7.88357 1.93565 8.00434 2.15177 8.16787 2.33361C8.3314 2.51544 8.53355 2.65838 8.7595 2.75193C8.98545 2.84548 9.22947 2.88728 9.47368 2.87426C9.71789 2.86124 9.95608 2.79374 10.1708 2.6767L10.4254 2.5367C11.0939 2.17357 11.8254 2.9042 11.4614 3.57357L11.3223 3.82907C11.2054 4.04382 11.1381 4.282 11.1252 4.52614C11.1123 4.77029 11.1543 5.01423 11.2479 5.24008C11.3415 5.46593 11.4845 5.66797 11.6663 5.8314C11.8482 5.99483 12.0643 6.1155 12.2988 6.18457L12.5771 6.26682C13.3077 6.48207 13.3077 7.51632 12.5771 7.73157L12.2979 7.81382C12.0634 7.88296 11.8472 8.00373 11.6654 8.16726C11.4836 8.33079 11.3406 8.53294 11.2471 8.75889C11.1535 8.98484 11.1117 9.22886 11.1247 9.47307C11.1378 9.71727 11.2053 9.95547 11.3223 10.1702L11.4623 10.4248C11.8254 11.0933 11.0948 11.8248 10.4254 11.4608L10.1708 11.3217C9.95602 11.2047 9.71777 11.1372 9.47351 11.1242C9.22926 11.1113 8.9852 11.1531 8.75924 11.2468C8.53328 11.3404 8.33114 11.4835 8.16765 11.6654C8.00416 11.8473 7.88347 12.0635 7.81443 12.2982L7.73218 12.5764C7.51693 13.3071 6.48268 13.3071 6.26743 12.5764L6.18518 12.2973C6.11601 12.0629 5.99526 11.8469 5.8318 11.6651C5.66833 11.4834 5.46627 11.3405 5.24044 11.247C5.0146 11.1534 4.77069 11.1116 4.52659 11.1245C4.28249 11.1374 4.04437 11.2048 3.82968 11.3217L3.57418 11.4617C2.90568 11.8248 2.17418 11.0942 2.53818 10.4248L2.67731 10.1702C2.79451 9.95544 2.86215 9.71716 2.87525 9.47285C2.88836 9.22854 2.8466 8.9844 2.75303 8.75833C2.65947 8.53227 2.51648 8.33002 2.33455 8.16643C2.15262 8.00284 1.93638 7.88206 1.70168 7.81295L1.42256 7.7307C0.691932 7.51545 0.691932 6.4812 1.42256 6.26595L1.70168 6.1837C1.93601 6.11449 2.1519 5.99377 2.33356 5.83036C2.51521 5.66695 2.65803 5.465 2.75155 5.23927C2.84508 5.01354 2.88695 4.76976 2.87411 4.52576C2.86126 4.28177 2.79402 4.04373 2.67731 3.82907L2.53731 3.57357C2.17418 2.90507 2.90481 2.17357 3.57418 2.53757L3.82968 2.6767C4.04437 2.79357 4.28249 2.86095 4.52659 2.87388C4.77069 2.88681 5.0146 2.84498 5.24044 2.75144C5.46627 2.6579 5.66833 2.51502 5.8318 2.33328C5.99526 2.15153 6.11601 1.93552 6.18518 1.70107L6.26743 1.42195Z" fill="#FDFCFC"/>
</g>
</g>
<defs>
<clipPath id="clip0_324_5227">
<rect width="14" height="14" fill="white"/>
</clipPath>
<clipPath id="clip1_324_5227">
<rect width="14" height="14" fill="white"/>
</clipPath>
</defs>
</svg>
