<svg width="20" height="19" viewBox="0 0 20 19" fill="none" xmlns="http://www.w3.org/2000/svg">
<mask id="path-1-inside-1_25_1317" fill="white">
<path d="M16.8524 7.77511H18.7119V9.20422L16.8524 9.18355V7.77511ZM16.8524 6.64904H18.7119V7.25856H16.8524V6.64904ZM17.1003 4.91H18.4605C18.5983 4.91 18.7119 5.02364 18.7119 5.16139V6.13594H16.8524V5.16139C16.8524 5.02364 16.966 4.91 17.1037 4.91H17.1003ZM16.8524 9.7001L18.7119 9.72076V17.4276H16.8524V9.69666V9.7001ZM13.0127 10.53H14.8723V11.9591L13.0127 11.9385V10.53ZM13.0127 9.40395H14.8723V10.0135H13.0127V9.40395ZM13.2641 7.66491H14.6243C14.7621 7.66491 14.8757 7.77855 14.8757 7.9163V8.89085H13.0161V7.9163C13.0161 7.77855 13.1298 7.66491 13.2675 7.66491H13.2641ZM13.0127 12.455L14.8723 12.4757V17.4276H13.0127V12.4516V12.455ZM9.17649 7.08638H11.0361V8.51549L9.17649 8.49483V7.08638ZM9.17649 5.96031H11.0361V6.56984H9.17649V5.96031ZM9.42443 4.22128H10.7847C10.9224 4.22128 11.0361 4.33492 11.0361 4.47266V5.44721H9.17649V4.47266C9.17649 4.33492 9.29013 4.22128 9.42788 4.22128H9.42443ZM9.17649 9.01137L11.0361 9.03203V17.4276H9.17649V9.00793V9.01137ZM5.33684 10.53H7.1964V11.9591L5.33684 11.9385V10.53ZM5.33684 9.40395H7.1964V10.0135H5.33684V9.40395ZM5.58822 7.66491H6.94846C7.0862 7.66491 7.19984 7.77855 7.19984 7.9163V8.89085H5.34028V7.9163C5.34028 7.77855 5.45392 7.66491 5.59167 7.66491H5.58822ZM5.33684 12.455L7.1964 12.4757V17.4276H5.33684V12.4516V12.455ZM1.50063 13.9737H3.36019V15.4028L1.50063 15.3821V13.9737ZM1.50063 12.8476H3.36019V13.4571H1.50063V12.8476ZM1.74857 11.1085H3.10881C3.24655 11.1085 3.36019 11.2222 3.36019 11.3599V12.3345H1.50063V11.3599C1.50063 11.2222 1.61427 11.1085 1.75201 11.1085H1.74857ZM1.50063 15.8986L3.36019 15.9193V17.4276H1.50063V15.8952V15.8986ZM19.3662 18.8739H0.839452C0.584623 18.8739 0.374561 18.6673 0.374561 18.4091C0.374561 18.1508 0.581179 17.9442 0.839452 17.9442H19.3696C19.6245 17.9442 19.8345 18.1508 19.8345 18.4091C19.8345 18.6673 19.6279 18.8739 19.3696 18.8739H19.3662ZM1.42831 7.60981C1.34911 7.48929 1.38355 7.33088 1.50063 7.25168L5.73974 4.44856L9.92032 0.236992C10.0167 0.14057 10.1717 0.133683 10.2716 0.223218L13.97 3.42235L18.2264 0.953268C18.3503 0.880952 18.5087 0.922275 18.5811 1.04625C18.6534 1.17022 18.612 1.32862 18.4881 1.40094L14.0733 3.963C13.9769 4.0181 13.8598 4.00777 13.7737 3.93546L10.12 0.770755L6.09099 4.8308C6.09099 4.8308 6.06344 4.85491 6.04967 4.86524L1.78645 7.68213C1.74168 7.70968 1.69347 7.72345 1.64526 7.72345C1.56262 7.72345 1.47997 7.68213 1.42831 7.60637V7.60981Z"/>
</mask>
<path d="M16.8524 7.77511H18.7119V9.20422L16.8524 9.18355V7.77511ZM16.8524 6.64904H18.7119V7.25856H16.8524V6.64904ZM17.1003 4.91H18.4605C18.5983 4.91 18.7119 5.02364 18.7119 5.16139V6.13594H16.8524V5.16139C16.8524 5.02364 16.966 4.91 17.1037 4.91H17.1003ZM16.8524 9.7001L18.7119 9.72076V17.4276H16.8524V9.69666V9.7001ZM13.0127 10.53H14.8723V11.9591L13.0127 11.9385V10.53ZM13.0127 9.40395H14.8723V10.0135H13.0127V9.40395ZM13.2641 7.66491H14.6243C14.7621 7.66491 14.8757 7.77855 14.8757 7.9163V8.89085H13.0161V7.9163C13.0161 7.77855 13.1298 7.66491 13.2675 7.66491H13.2641ZM13.0127 12.455L14.8723 12.4757V17.4276H13.0127V12.4516V12.455ZM9.17649 7.08638H11.0361V8.51549L9.17649 8.49483V7.08638ZM9.17649 5.96031H11.0361V6.56984H9.17649V5.96031ZM9.42443 4.22128H10.7847C10.9224 4.22128 11.0361 4.33492 11.0361 4.47266V5.44721H9.17649V4.47266C9.17649 4.33492 9.29013 4.22128 9.42788 4.22128H9.42443ZM9.17649 9.01137L11.0361 9.03203V17.4276H9.17649V9.00793V9.01137ZM5.33684 10.53H7.1964V11.9591L5.33684 11.9385V10.53ZM5.33684 9.40395H7.1964V10.0135H5.33684V9.40395ZM5.58822 7.66491H6.94846C7.0862 7.66491 7.19984 7.77855 7.19984 7.9163V8.89085H5.34028V7.9163C5.34028 7.77855 5.45392 7.66491 5.59167 7.66491H5.58822ZM5.33684 12.455L7.1964 12.4757V17.4276H5.33684V12.4516V12.455ZM1.50063 13.9737H3.36019V15.4028L1.50063 15.3821V13.9737ZM1.50063 12.8476H3.36019V13.4571H1.50063V12.8476ZM1.74857 11.1085H3.10881C3.24655 11.1085 3.36019 11.2222 3.36019 11.3599V12.3345H1.50063V11.3599C1.50063 11.2222 1.61427 11.1085 1.75201 11.1085H1.74857ZM1.50063 15.8986L3.36019 15.9193V17.4276H1.50063V15.8952V15.8986ZM19.3662 18.8739H0.839452C0.584623 18.8739 0.374561 18.6673 0.374561 18.4091C0.374561 18.1508 0.581179 17.9442 0.839452 17.9442H19.3696C19.6245 17.9442 19.8345 18.1508 19.8345 18.4091C19.8345 18.6673 19.6279 18.8739 19.3696 18.8739H19.3662ZM1.42831 7.60981C1.34911 7.48929 1.38355 7.33088 1.50063 7.25168L5.73974 4.44856L9.92032 0.236992C10.0167 0.14057 10.1717 0.133683 10.2716 0.223218L13.97 3.42235L18.2264 0.953268C18.3503 0.880952 18.5087 0.922275 18.5811 1.04625C18.6534 1.17022 18.612 1.32862 18.4881 1.40094L14.0733 3.963C13.9769 4.0181 13.8598 4.00777 13.7737 3.93546L10.12 0.770755L6.09099 4.8308C6.09099 4.8308 6.06344 4.85491 6.04967 4.86524L1.78645 7.68213C1.74168 7.70968 1.69347 7.72345 1.64526 7.72345C1.56262 7.72345 1.47997 7.68213 1.42831 7.60637V7.60981Z" stroke="#FFF9E6" stroke-width="0.779741" mask="url(#path-1-inside-1_25_1317)"/>
</svg>
