<svg width="515" height="518" viewBox="0 0 515 518" fill="none" xmlns="http://www.w3.org/2000/svg">
<path opacity="0.3" d="M448.913 59.1855L13.5508 186.032L26.1385 229.235L461.5 102.389L448.913 59.1855Z" fill="#1D1D1D"/>
<path d="M63.7437 384L0.253282 143.886C-0.217418 142.106 -0.0270337 140.192 0.782524 138.567C1.59208 136.941 2.9545 135.737 4.57009 135.218L424.886 0.277608C426.501 -0.239309 428.237 -0.028815 429.712 0.862909C431.187 1.75463 432.28 3.25472 432.752 5.03389L489 217.758L487.26 218.317L431.012 5.59277C430.674 4.32246 429.893 3.25157 428.839 2.61473C427.786 1.97788 426.547 1.82698 425.393 2.19513L5.07718 137.136C3.92318 137.506 2.95003 138.366 2.37177 139.528C1.79352 140.689 1.65753 142.055 1.99373 143.327L65.4841 383.441L63.7437 384Z" fill="#1D1D1D"/>
<path d="M436.862 219.022C435.455 219.02 434.087 218.563 432.961 217.719C431.836 216.875 431.014 215.689 430.619 214.339L418.87 174.015C418.39 172.36 418.586 170.583 419.415 169.072C420.244 167.561 421.638 166.441 423.292 165.957L463.616 154.208C465.271 153.728 467.049 153.924 468.56 154.753C470.071 155.583 471.191 156.977 471.674 158.631L483.423 198.954C483.903 200.609 483.707 202.387 482.878 203.898C482.049 205.409 480.655 206.529 479.001 207.013L438.677 218.762C438.088 218.934 437.477 219.022 436.862 219.022Z" fill="#1D1D1D"/>
<path d="M69.2465 144.812C69.1257 144.398 68.9821 143.99 68.8163 143.592C67.6888 140.856 65.5899 138.632 62.9228 137.35C60.2557 136.067 57.2086 135.815 54.367 136.642C51.5254 137.469 49.0898 139.318 47.5281 141.832C45.9665 144.346 45.389 147.348 45.9066 150.262C45.9793 150.687 46.0762 151.108 46.1966 151.522C46.9269 154.015 48.4449 156.204 50.5234 157.761C52.6019 159.319 55.1291 160.161 57.7264 160.162C58.8604 160.165 59.9888 160.003 61.0765 159.682C64.1294 158.79 66.704 156.724 68.2356 153.936C69.7671 151.148 70.1307 147.867 69.2465 144.812ZM60.5165 157.762C57.9705 158.501 55.2353 158.2 52.9108 156.925C50.5863 155.651 48.8622 153.506 48.1166 150.962C47.9995 150.548 47.9059 150.127 47.8363 149.702C47.4612 147.301 47.9735 144.846 49.2773 142.795C50.5811 140.745 52.5871 139.239 54.9204 138.56C57.2536 137.881 59.7543 138.076 61.9547 139.107C64.1551 140.138 65.9047 141.935 66.8763 144.162C67.0574 144.553 67.2079 144.958 67.3265 145.372C68.0644 147.918 67.7618 150.653 66.4849 152.976C65.2081 155.299 63.0615 157.02 60.5165 157.762Z" fill="#1D1D1D"/>
<path d="M39.814 153.382C39.1741 151.184 39.2355 148.841 39.9899 146.68C40.7442 144.519 42.1538 142.647 44.0224 141.325C42.2717 141.239 40.5261 141.573 38.9308 142.299C37.3355 143.025 35.9368 144.122 34.8512 145.498C33.7656 146.874 33.0244 148.489 32.6896 150.21C32.3547 151.93 32.4358 153.706 32.9261 155.389C33.4164 157.071 34.3016 158.612 35.5081 159.884C36.7147 161.155 38.2075 162.12 39.8623 162.697C41.5171 163.275 43.286 163.448 45.0215 163.204C46.7571 162.959 48.4091 162.304 49.8399 161.292C47.5536 161.18 45.359 160.358 43.5619 158.94C41.7648 157.522 40.4547 155.579 39.814 153.382Z" fill="#1D1D1D"/>
<path d="M472.254 217H75.7465C74.2229 217.001 72.7623 217.528 71.685 218.464C70.6077 219.4 70.0017 220.669 70 221.993V426.007C70.0016 427.331 70.6076 428.6 71.6849 429.536C72.7622 430.472 74.2229 430.999 75.7465 431H472.254C473.777 430.999 475.238 430.472 476.315 429.536C477.392 428.6 477.998 427.331 478 426.007V221.993C477.998 220.669 477.392 219.4 476.315 218.464C475.238 217.528 473.777 217.002 472.254 217ZM476.358 426.007C476.358 426.952 475.925 427.859 475.156 428.528C474.386 429.197 473.342 429.573 472.254 429.573H75.7465C74.658 429.573 73.6142 429.197 72.8445 428.528C72.0748 427.859 71.6422 426.952 71.6418 426.007V221.993C71.6423 221.048 72.0749 220.141 72.8446 219.472C73.6142 218.803 74.658 218.427 75.7465 218.427H472.254C473.342 218.427 474.386 218.803 475.155 219.472C475.925 220.141 476.358 221.048 476.358 221.993V426.007Z" fill="#1D1D1D"/>
<path d="M124.166 256.312C121.793 256.312 119.473 255.608 117.5 254.29C115.526 252.971 113.988 251.097 113.08 248.904C112.172 246.712 111.934 244.299 112.397 241.971C112.86 239.643 114.003 237.505 115.681 235.827C117.359 234.149 119.498 233.006 121.825 232.543C124.153 232.08 126.566 232.317 128.759 233.225C130.951 234.134 132.825 235.672 134.144 237.645C135.463 239.619 136.166 241.939 136.166 244.312C136.163 247.493 134.897 250.544 132.648 252.793C130.398 255.043 127.348 256.308 124.166 256.312ZM124.166 234.312C122.189 234.312 120.255 234.898 118.611 235.997C116.966 237.096 115.684 238.658 114.928 240.485C114.171 242.312 113.973 244.323 114.359 246.263C114.744 248.203 115.697 249.985 117.095 251.383C118.494 252.782 120.276 253.734 122.215 254.12C124.155 254.506 126.166 254.308 127.993 253.551C129.82 252.794 131.382 251.512 132.481 249.868C133.58 248.223 134.166 246.29 134.166 244.312C134.163 241.661 133.109 239.119 131.234 237.244C129.359 235.37 126.818 234.315 124.166 234.312Z" fill="#1D1D1D"/>
<path d="M105.514 244.312C105.515 242.023 106.229 239.791 107.558 237.927C108.886 236.063 110.763 234.66 112.927 233.913C111.27 233.342 109.501 233.174 107.766 233.425C106.032 233.676 104.382 234.337 102.955 235.355C101.528 236.372 100.364 237.716 99.5613 239.274C98.7586 240.832 98.3398 242.559 98.3398 244.312C98.3398 246.065 98.7586 247.792 99.5613 249.35C100.364 250.908 101.528 252.252 102.955 253.269C104.382 254.287 106.032 254.948 107.766 255.199C109.501 255.45 111.27 255.282 112.927 254.711C110.763 253.964 108.886 252.561 107.558 250.697C106.229 248.833 105.515 246.601 105.514 244.312Z" fill="#1D1D1D"/>
<path d="M172.81 386.09C170.424 386.087 168.136 385.138 166.449 383.451C164.762 381.764 163.813 379.476 163.81 377.09V350.09C163.81 347.703 164.758 345.414 166.446 343.726C168.134 342.038 170.423 341.09 172.81 341.09C175.197 341.09 177.486 342.038 179.174 343.726C180.862 345.414 181.81 347.703 181.81 350.09V377.09C181.807 379.476 180.858 381.764 179.171 383.451C177.484 385.138 175.196 386.087 172.81 386.09Z" fill="#1D1D1D"/>
<path d="M196.81 386.09C194.424 386.087 192.136 385.138 190.449 383.451C188.762 381.764 187.813 379.476 187.81 377.09V350.09C187.81 347.703 188.758 345.414 190.446 343.726C192.134 342.038 194.423 341.09 196.81 341.09C199.197 341.09 201.486 342.038 203.174 343.726C204.862 345.414 205.81 347.703 205.81 350.09V377.09C205.807 379.476 204.858 381.764 203.171 383.451C201.484 385.138 199.196 386.087 196.81 386.09Z" fill="#1D1D1D"/>
<path d="M220.81 386.09C218.424 386.087 216.136 385.138 214.449 383.451C212.762 381.764 211.813 379.476 211.81 377.09V350.09C211.81 347.703 212.758 345.414 214.446 343.726C216.134 342.038 218.423 341.09 220.81 341.09C223.197 341.09 225.486 342.038 227.174 343.726C228.862 345.414 229.81 347.703 229.81 350.09V377.09C229.807 379.476 228.858 381.764 227.171 383.451C225.484 385.138 223.196 386.087 220.81 386.09Z" fill="#1D1D1D"/>
<path d="M257.81 386.09C255.424 386.087 253.136 385.138 251.449 383.451C249.762 381.764 248.813 379.476 248.81 377.09V350.09C248.81 347.703 249.758 345.414 251.446 343.726C253.134 342.038 255.423 341.09 257.81 341.09C260.197 341.09 262.486 342.038 264.174 343.726C265.862 345.414 266.81 347.703 266.81 350.09V377.09C266.807 379.476 265.858 381.764 264.171 383.451C262.484 385.138 260.196 386.087 257.81 386.09Z" fill="#1D1D1D"/>
<path d="M281.81 386.09C279.424 386.087 277.136 385.138 275.449 383.451C273.762 381.764 272.813 379.476 272.81 377.09V350.09C272.81 347.703 273.758 345.414 275.446 343.726C277.134 342.038 279.423 341.09 281.81 341.09C284.197 341.09 286.486 342.038 288.174 343.726C289.862 345.414 290.81 347.703 290.81 350.09V377.09C290.807 379.476 289.858 381.764 288.171 383.451C286.484 385.138 284.196 386.087 281.81 386.09Z" fill="#1D1D1D"/>
<path d="M305.81 386.09C303.424 386.087 301.136 385.138 299.449 383.451C297.762 381.764 296.813 379.476 296.81 377.09V350.09C296.81 347.703 297.758 345.414 299.446 343.726C301.134 342.038 303.423 341.09 305.81 341.09C308.197 341.09 310.486 342.038 312.174 343.726C313.862 345.414 314.81 347.703 314.81 350.09V377.09C314.807 379.476 313.858 381.764 312.171 383.451C310.484 385.138 308.196 386.087 305.81 386.09Z" fill="#1D1D1D"/>
<path d="M342.81 386.09C340.424 386.087 338.136 385.138 336.449 383.451C334.762 381.764 333.813 379.476 333.81 377.09V350.09C333.81 347.703 334.758 345.414 336.446 343.726C338.134 342.038 340.423 341.09 342.81 341.09C345.197 341.09 347.486 342.038 349.174 343.726C350.862 345.414 351.81 347.703 351.81 350.09V377.09C351.807 379.476 350.858 381.764 349.171 383.451C347.484 385.138 345.196 386.087 342.81 386.09Z" fill="#1D1D1D"/>
<path d="M366.81 386.09C364.424 386.087 362.136 385.138 360.449 383.451C358.762 381.764 357.813 379.476 357.81 377.09V350.09C357.81 347.703 358.758 345.414 360.446 343.726C362.134 342.038 364.423 341.09 366.81 341.09C369.197 341.09 371.486 342.038 373.174 343.726C374.862 345.414 375.81 347.703 375.81 350.09V377.09C375.807 379.476 374.858 381.764 373.171 383.451C371.484 385.138 369.196 386.087 366.81 386.09Z" fill="#1D1D1D"/>
<path d="M390.81 386.09C388.424 386.087 386.136 385.138 384.449 383.451C382.762 381.764 381.813 379.476 381.81 377.09V350.09C381.81 347.703 382.758 345.414 384.446 343.726C386.134 342.038 388.423 341.09 390.81 341.09C393.197 341.09 395.486 342.038 397.174 343.726C398.862 345.414 399.81 347.703 399.81 350.09V377.09C399.807 379.476 398.858 381.764 397.171 383.451C395.484 385.138 393.196 386.087 390.81 386.09Z" fill="#1D1D1D"/>
<path d="M427.81 386.09C425.424 386.087 423.136 385.138 421.449 383.451C419.762 381.764 418.813 379.476 418.81 377.09V350.09C418.81 347.703 419.758 345.414 421.446 343.726C423.134 342.038 425.423 341.09 427.81 341.09C430.197 341.09 432.486 342.038 434.174 343.726C435.862 345.414 436.81 347.703 436.81 350.09V377.09C436.807 379.476 435.858 381.764 434.171 383.451C432.484 385.138 430.196 386.087 427.81 386.09Z" fill="#1D1D1D"/>
<path d="M451.81 386.09C449.424 386.087 447.136 385.138 445.449 383.451C443.762 381.764 442.813 379.476 442.81 377.09V350.09C442.81 347.703 443.758 345.414 445.446 343.726C447.134 342.038 449.423 341.09 451.81 341.09C454.197 341.09 456.486 342.038 458.174 343.726C459.862 345.414 460.81 347.703 460.81 350.09V377.09C460.807 379.476 459.858 381.764 458.171 383.451C456.484 385.138 454.196 386.087 451.81 386.09Z" fill="#1D1D1D"/>
<path d="M475.81 386.09C473.424 386.087 471.136 385.138 469.449 383.451C467.762 381.764 466.813 379.476 466.81 377.09V350.09C466.81 347.703 467.758 345.414 469.446 343.726C471.134 342.038 473.423 341.09 475.81 341.09C478.197 341.09 480.486 342.038 482.174 343.726C483.862 345.414 484.81 347.703 484.81 350.09V377.09C484.807 379.476 483.858 381.764 482.171 383.451C480.484 385.138 478.196 386.087 475.81 386.09Z" fill="#1D1D1D"/>
<path d="M564.81 277.09H71.8101V279.09H564.81V277.09Z" fill="#1D1D1D"/>
</svg>
