<svg width="408" height="214" viewBox="0 0 408 214" fill="none" xmlns="http://www.w3.org/2000/svg">
<path d="M402.254 0H5.74647C4.22294 0.00148589 2.76229 0.528043 1.68499 1.46415C0.607688 2.40026 0.00171001 3.66947 0 4.99333V209.007C0.00164061 210.331 0.607598 211.6 1.68492 212.536C2.76223 213.472 4.22292 213.999 5.74647 214H402.254C403.777 213.999 405.238 213.472 406.315 212.536C407.392 211.6 407.998 210.331 408 209.007V4.99333C407.998 3.66949 407.392 2.40032 406.315 1.46422C405.238 0.528121 403.777 0.0015443 402.254 0ZM406.358 209.007C406.358 209.952 405.925 210.859 405.156 211.528C404.386 212.197 403.342 212.573 402.254 212.573H5.74647C4.65798 212.573 3.61418 212.197 2.8445 211.528C2.07482 210.859 1.64224 209.952 1.64185 209.007V4.99333C1.64231 4.04752 2.07491 3.14055 2.84458 2.47176C3.61424 1.80297 4.658 1.42707 5.74647 1.42667H402.254C403.342 1.42707 404.386 1.80297 405.155 2.47176C405.925 3.14055 406.358 4.04752 406.358 4.99333V209.007Z" fill="#1D1D1D"/>
</svg>
